<svg version="1.1" xmlns="http://www.w3.org/2000/svg" viewBox="0 0 501.33326859907595 243.33329634232945" width="501.33326859907595" height="243.33329634232945" filter="invert(93%) hue-rotate(180deg)">
  <!-- svg-source:excalidraw -->
  
  <defs>
    <style class="style-fonts">
      @font-face {
        font-family: "Virgil";
        src: url("https://excalidraw.com/Virgil.woff2");
      }
      @font-face {
        font-family: "Cascadia";
        src: url("https://excalidraw.com/Cascadia.woff2");
      }
    </style>
    
  </defs>
  <g stroke-linecap="round" transform="translate(284.66667591441717 10) rotate(0 103.33329634232939 36.363636363636346)"><path d="M18.18 0 C59.47 -1.12, 107.48 -0.6, 188.48 0 C197.16 0.43, 206.22 4.83, 206.67 18.18 C206.71 30.08, 209.82 35.04, 206.67 54.55 C206.64 66.55, 202.29 75.84, 188.48 72.73 C131.25 73.61, 81.13 69.38, 18.18 72.73 C8.79 69.45, -1.94 66.02, 0 54.55 C-1.25 43.96, 3.07 27.49, 0 18.18 C2.16 4.89, 7.79 1.1, 18.18 0" stroke="none" stroke-width="0" fill="#a5d8ff"></path><path d="M18.18 0 C56.1 1.36, 94.46 -0.46, 188.48 0 M18.18 0 C62.55 0.48, 106.97 1.07, 188.48 0 M188.48 0 C202.56 -0.38, 208.25 6.28, 206.67 18.18 M188.48 0 C198.38 0.82, 208.24 6.88, 206.67 18.18 M206.67 18.18 C206.33 28.97, 206.76 42.52, 206.67 54.55 M206.67 18.18 C207 26.84, 206.98 32.93, 206.67 54.55 M206.67 54.55 C207.83 64.96, 201.34 74.07, 188.48 72.73 M206.67 54.55 C208.92 67.58, 200.94 70.82, 188.48 72.73 M188.48 72.73 C138.1 72.53, 89.16 71.48, 18.18 72.73 M188.48 72.73 C152.78 72.8, 117.52 73.6, 18.18 72.73 M18.18 72.73 C5.17 70.86, 0.83 67.9, 0 54.55 M18.18 72.73 C3.87 72.76, 1.86 68.35, 0 54.55 M0 54.55 C-0.41 47.69, -1.85 40.43, 0 18.18 M0 54.55 C-0.01 47.6, -1.07 39.79, 0 18.18 M0 18.18 C1.96 5.43, 7.54 -0.03, 18.18 0 M0 18.18 C1.65 5.36, 5.62 -1.12, 18.18 0" stroke="#1971c2" stroke-width="2" fill="none"></path></g><g transform="translate(351.39999667080906 36.36363636363632) rotate(0 36.5999755859375 10)"><text x="36.5999755859375" y="0" font-family="Virgil, Segoe UI Emoji" font-size="16px" fill="#1e1e1e" text-anchor="middle" style="white-space: pre;" direction="ltr" dominant-baseline="text-before-edge">controller</text></g><g stroke-linecap="round" transform="translate(91.78784179687443 160.6060236150567) rotate(0 165.45454545454544 36.363636363636374)"><path d="M18.18 0 C95.47 -0.1, 177.63 0.97, 312.73 0 C327.97 -2.85, 330.3 7.75, 330.91 18.18 C330.1 29.84, 332.94 43.87, 330.91 54.55 C331.41 68.25, 322.82 69.25, 312.73 72.73 C201.39 69.01, 84.23 71.79, 18.18 72.73 C8.92 74.69, -3.54 69.89, 0 54.55 C2.87 40.43, 0.59 28.75, 0 18.18 C-1.72 4.41, 3.85 2.6, 18.18 0" stroke="none" stroke-width="0" fill="#ffc9c9"></path><path d="M18.18 0 C111.03 2.33, 202.65 2.04, 312.73 0 M18.18 0 C124.97 2.63, 233.21 2.58, 312.73 0 M312.73 0 C326.02 -1.88, 328.95 4.87, 330.91 18.18 M312.73 0 C327.14 0.1, 329.89 6.13, 330.91 18.18 M330.91 18.18 C331.15 29.53, 329.98 39.56, 330.91 54.55 M330.91 18.18 C330.99 30.31, 332.06 43.13, 330.91 54.55 M330.91 54.55 C332.09 66.7, 325.72 72.1, 312.73 72.73 M330.91 54.55 C331.37 64.94, 324.98 74.12, 312.73 72.73 M312.73 72.73 C225.55 73.18, 136.47 72.05, 18.18 72.73 M312.73 72.73 C223.68 71.11, 135.06 70.73, 18.18 72.73 M18.18 72.73 C4.87 70.81, 1.92 64.75, 0 54.55 M18.18 72.73 C6.59 73.73, -2.03 68.7, 0 54.55 M0 54.55 C-1 43.93, 1.07 33.08, 0 18.18 M0 54.55 C-0.3 45.95, -0.45 35.53, 0 18.18 M0 18.18 C0.69 5.41, 4.43 1.7, 18.18 0 M0 18.18 C1.1 5.61, 4.8 -0.35, 18.18 0" stroke="#e03131" stroke-width="2" fill="none"></path></g><g transform="translate(226.41040940718165 186.96965997869307) rotate(0 30.83197784423828 10)"><text x="30.83197784423828" y="0" font-family="Virgil, Segoe UI Emoji" font-size="16px" fill="#1e1e1e" text-anchor="middle" style="white-space: pre;" direction="ltr" dominant-baseline="text-before-edge">services</text></g><g stroke-linecap="round" transform="translate(10 11.818098588423254) rotate(0 112.12122136896306 36.363636363636346)"><path d="M18.18 0 C87.36 2.92, 154.93 2.45, 206.06 0 C221.16 -0.42, 227.83 4.53, 224.24 18.18 C222.37 27.76, 225.44 38.03, 224.24 54.55 C224.29 64.96, 214.79 73.46, 206.06 72.73 C165.65 69.14, 115.76 74.41, 18.18 72.73 C8.53 72.91, -3.26 68.18, 0 54.55 C1.19 46.51, 1.47 38.63, 0 18.18 C0.88 3.35, 3.22 1.96, 18.18 0" stroke="none" stroke-width="0" fill="#b2f2bb"></path><path d="M18.18 0 C77.09 -1.32, 135.07 -0.57, 206.06 0 M18.18 0 C88.76 -1.5, 159.07 -0.07, 206.06 0 M206.06 0 C219.82 1.36, 223.75 4.37, 224.24 18.18 M206.06 0 C218.53 1.05, 225.05 7.35, 224.24 18.18 M224.24 18.18 C225.25 28.41, 225.99 36.52, 224.24 54.55 M224.24 18.18 C223.36 31.05, 224.38 45.04, 224.24 54.55 M224.24 54.55 C222.29 67.48, 218.3 72.68, 206.06 72.73 M224.24 54.55 C223.56 64.48, 216.87 74.47, 206.06 72.73 M206.06 72.73 C164.66 70.19, 125.57 72.09, 18.18 72.73 M206.06 72.73 C158.4 70.42, 111.73 70.49, 18.18 72.73 M18.18 72.73 C5.32 73.9, -1.36 68.63, 0 54.55 M18.18 72.73 C7.84 75.01, 1.14 65.45, 0 54.55 M0 54.55 C-1.05 43.84, -0.1 31.15, 0 18.18 M0 54.55 C-0.75 41.87, 0.69 28.76, 0 18.18 M0 18.18 C-1.04 6.77, 6.6 1.15, 18.18 0 M0 18.18 C-0.13 4.86, 8.24 -1.79, 18.18 0" stroke="#2f9e44" stroke-width="2" fill="none"></path></g><g transform="translate(78.89725286310374 38.18173495205957) rotate(0 43.223968505859375 10)"><text x="43.223968505859375" y="0" font-family="Virgil, Segoe UI Emoji" font-size="16px" fill="#1e1e1e" text-anchor="middle" style="white-space: pre;" direction="ltr" dominant-baseline="text-before-edge">persistence</text></g><g stroke-linecap="round"><g transform="translate(115.17865613303616 85.54537131569595) rotate(0 0.8354627846586027 37.58139577860274)"><path d="M-0.06 -0.01 C0.24 12.52, 1.42 62.64, 1.73 75.17 M0.18 -0.14 C0.47 12.4, 1.36 62.73, 1.63 75.31" stroke="#1e1e1e" stroke-width="2" fill="none"></path></g><g transform="translate(115.17865613303616 85.54537131569595) rotate(0 0.8354627846586027 37.58139577860274)"><path d="M-9.17 47.32 C-6.46 54.45, -3.92 61.68, 1.63 75.31 M-9.17 47.32 C-6.56 53.86, -4.1 60.79, 1.63 75.31" stroke="#1e1e1e" stroke-width="2" fill="none"></path></g><g transform="translate(115.17865613303616 85.54537131569595) rotate(0 0.8354627846586027 37.58139577860274)"><path d="M11.34 46.92 C8.88 54.14, 6.24 61.47, 1.63 75.31 M11.34 46.92 C9.05 53.57, 6.6 60.6, 1.63 75.31" stroke="#1e1e1e" stroke-width="2" fill="none"></path></g></g><mask></mask><g stroke-linecap="round"><g transform="translate(388.7737927570057 84.54542680220169) rotate(0 -0.6443073454432238 35.76582056696412)"><path d="M0.01 -0.14 C-0.23 11.79, -1.09 59.56, -1.29 71.49 M-0.17 0.12 C-0.37 12.08, -0.81 59.76, -1 71.67" stroke="#1e1e1e" stroke-width="2" fill="none"></path></g><g transform="translate(388.7737927570057 84.54542680220169) rotate(0 -0.6443073454432238 35.76582056696412)"><path d="M-10.91 43.35 C-7.33 54.26, -3.24 65.45, -1 71.67 M-10.91 43.35 C-8.26 50.51, -5.75 57.9, -1 71.67" stroke="#1e1e1e" stroke-width="2" fill="none"></path></g><g transform="translate(388.7737927570057 84.54542680220169) rotate(0 -0.6443073454432238 35.76582056696412)"><path d="M9.61 43.61 C5.17 54.42, 1.24 65.51, -1 71.67 M9.61 43.61 C7 50.68, 4.26 58.01, -1 71.67" stroke="#1e1e1e" stroke-width="2" fill="none"></path></g></g><mask></mask></svg>