<svg version="1.1" xmlns="http://www.w3.org/2000/svg" viewBox="0 0 1611.194786950252 262.3528169353974" width="3222.389573900504" height="524.7056338707948" filter="invert(93%) hue-rotate(180deg)">
  <!-- svg-source:excalidraw -->
  
  <defs>
    <style class="style-fonts">
      @font-face {
        font-family: "Virgil";
        src: url("https://excalidraw.com/Virgil.woff2");
      }
      @font-face {
        font-family: "Cascadia";
        src: url("https://excalidraw.com/Cascadia.woff2");
      }
    </style>
    
  </defs>
  <g stroke-linecap="round" transform="translate(779.3765496455643 31.479697795829395) rotate(0 107.2726995294745 83.93941705877126)"><path d="M32 0 C71.08 2.46, 105.16 0.55, 182.55 0 M32 0 C70.47 1.28, 109.37 1.07, 182.55 0 M182.55 0 C204.91 -1.14, 213.94 11.62, 214.55 32 M182.55 0 C205.17 -0.85, 214.09 10.54, 214.55 32 M214.55 32 C213.08 56.08, 215.78 80.35, 214.55 135.88 M214.55 32 C214.31 56.02, 214.54 79.49, 214.55 135.88 M214.55 135.88 C215.8 158.61, 202.81 168.58, 182.55 167.88 M214.55 135.88 C214.15 155.96, 205.28 167.55, 182.55 167.88 M182.55 167.88 C140.91 168.84, 102.02 169.47, 32 167.88 M182.55 167.88 C125.38 167.22, 67.34 166.95, 32 167.88 M32 167.88 C11.15 168.14, -0.77 155.66, 0 135.88 M32 167.88 C9.42 168.65, -1.25 154.93, 0 135.88 M0 135.88 C-0.49 116.07, -0.12 92.62, 0 32 M0 135.88 C-0.56 97.76, -0.37 58.69, 0 32 M0 32 C-0.39 9.92, 11.49 -1.44, 32 0 M0 32 C-2.13 10, 10.35 0.13, 32 0" stroke="#f08c00" stroke-width="2" fill="none"></path></g><g stroke-linecap="round" transform="translate(1223.6189368969845 24.05556172072278) rotate(0 188.78792502663373 87.5757668235085)"><path d="M32 0 C152.06 0.83, 271.39 0.72, 345.58 0 M32 0 C126.09 1.04, 219.86 1.27, 345.58 0 M345.58 0 C365.42 -0.73, 375.69 10.33, 377.58 32 M345.58 0 C365.48 -0.8, 377.48 9.79, 377.58 32 M377.58 32 C376.39 74.75, 377.93 114.54, 377.58 143.15 M377.58 32 C377.78 61.85, 379.34 92.29, 377.58 143.15 M377.58 143.15 C378.96 163.1, 365.19 176.3, 345.58 175.15 M377.58 143.15 C378.26 164.41, 364.82 174.69, 345.58 175.15 M345.58 175.15 C238.62 173.36, 131.58 175.51, 32 175.15 M345.58 175.15 C243.9 174.02, 142.67 174.21, 32 175.15 M32 175.15 C11.52 176.84, -1.64 163.95, 0 143.15 M32 175.15 C12.82 173.94, 0.93 162.34, 0 143.15 M0 143.15 C-0.94 121.8, 0.7 96.79, 0 32 M0 143.15 C-0.02 112.37, -0.56 80.67, 0 32 M0 32 C0.98 10.76, 10.72 0.79, 32 0 M0 32 C1.14 9.54, 10.66 2.28, 32 0" stroke="#2f9e44" stroke-width="2" fill="none"></path></g><g stroke-linecap="round" transform="translate(1238.1643914424392 51.47978102558778) rotate(0 64.2424149946732 59.99998612837362)"><path d="M4.27 11.66 C4.27 11.66, 4.27 11.66, 4.27 11.66 M4.27 11.66 C4.27 11.66, 4.27 11.66, 4.27 11.66 M1.12 27.48 C8.69 16.09, 17.59 8.01, 24.74 0.31 M1.12 27.48 C9.25 17.5, 18.08 7.74, 24.74 0.31 M0.6 40.27 C9.7 31.21, 15.57 20.46, 35.37 0.27 M0.6 40.27 C9.03 31.25, 14.58 24.04, 35.37 0.27 M0.73 52.31 C8.7 41.55, 18.69 30.12, 46 0.24 M0.73 52.31 C13.85 37.2, 26.23 23.34, 46 0.24 M0.87 64.35 C21.52 38.86, 42.47 16.53, 56.63 0.2 M0.87 64.35 C19.17 42.49, 39.56 20.89, 56.63 0.2 M1 76.39 C27.71 46.08, 54.03 19.48, 67.26 0.17 M1 76.39 C24.98 47.49, 50.18 19.8, 67.26 0.17 M1.13 88.43 C18.86 69.61, 36.3 49.12, 77.89 0.13 M1.13 88.43 C30.96 53.18, 59.6 20.36, 77.89 0.13 M1.92 99.72 C32.2 65.88, 59.33 36.53, 87.86 0.85 M1.92 99.72 C31.62 64.23, 60.74 30.6, 87.86 0.85 M5.33 107.99 C23.9 82.9, 45.46 61.37, 98.49 0.82 M5.33 107.99 C41.5 67.81, 77.53 24.96, 98.49 0.82 M10.72 113.99 C32.26 88.65, 53.26 65.3, 108.47 1.54 M10.72 113.99 C37.92 81.94, 64.98 51.07, 108.47 1.54 M17.41 118.48 C52.28 80.33, 88.45 40.38, 116.47 4.52 M17.41 118.48 C47.43 84.77, 77.77 52.26, 116.47 4.52 M26.73 119.96 C45.5 97.53, 67.48 73.39, 122.51 9.77 M26.73 119.96 C51.13 91.81, 77.01 63.65, 122.51 9.77 M37.36 119.93 C66.54 88.04, 93.68 52.49, 126.58 17.28 M37.36 119.93 C58.76 96.67, 78.12 72.56, 126.58 17.28 M47.99 119.89 C67.84 94.41, 91.19 71.69, 128.03 27.82 M47.99 119.89 C73.75 88.45, 101.23 59.88, 128.03 27.82 M58.62 119.86 C73.82 100.49, 87.67 84.14, 128.82 39.1 M58.62 119.86 C73.94 103.12, 91.03 84.07, 128.82 39.1 M69.25 119.82 C90.26 98.06, 108.82 75.39, 128.29 51.9 M69.25 119.82 C91.2 95.34, 112.96 70.19, 128.29 51.9 M79.88 119.79 C97.27 100.04, 114.97 77.72, 128.43 63.94 M79.88 119.79 C92.81 104.42, 106.4 88.44, 128.43 63.94 M90.51 119.75 C102.77 107.41, 113.4 94.18, 128.56 75.98 M90.51 119.75 C104.32 102.45, 120.4 85.92, 128.56 75.98 M100.48 120.47 C110.34 108.12, 120.74 96.63, 128.04 88.78 M100.48 120.47 C110.15 110.68, 118.72 100.42, 128.04 88.78 M114.39 116.66 C116.32 114.53, 122.93 109.15, 127.51 101.57 M114.39 116.66 C118.18 112.11, 122.26 107.58, 127.51 101.57" stroke="#b2f2bb" stroke-width="1" fill="none"></path><path d="M30 0 C43.31 1.24, 60.05 2.35, 98.48 0 M30 0 C55.12 -0.22, 79.6 1.35, 98.48 0 M98.48 0 C118.53 -1, 130.28 8.85, 128.48 30 M98.48 0 C118.99 -0.63, 129.56 10.44, 128.48 30 M128.48 30 C129.01 48.01, 129.44 70.4, 128.48 90 M128.48 30 C127.19 48.51, 129.09 66.52, 128.48 90 M128.48 90 C126.52 110.57, 119.52 119.11, 98.48 120 M128.48 90 C128.74 108.55, 116.64 118.55, 98.48 120 M98.48 120 C79.11 120.3, 57.9 118.54, 30 120 M98.48 120 C72.7 119.31, 45.11 120.42, 30 120 M30 120 C9.85 120.47, -1.71 108.76, 0 90 M30 120 C11.65 118.99, -0.34 109.68, 0 90 M0 90 C-1.63 68.25, 0.97 50.38, 0 30 M0 90 C-0.08 70.84, 0.55 53.11, 0 30 M0 30 C-1.52 9.94, 11.4 -0.51, 30 0 M0 30 C0.74 9.77, 7.81 -1.01, 30 0" stroke="#2f9e44" stroke-width="2" fill="none"></path></g><g transform="translate(1256.724830118753 93.9797671539614) rotate(0 45.681976318359375 17.5)"><text x="45.681976318359375" y="0" font-family="Virgil, Segoe UI Emoji" font-size="28px" fill="#2f9e44" text-anchor="middle" style="white-space: pre;" direction="ltr" dominant-baseline="text-before-edge">mapper</text></g><g stroke-linecap="round" transform="translate(1502.072513775815 121.93206649375986) rotate(0 43.997226749574224 9.118726705661828)"><path d="M87.99 9.12 C87.99 9.65, 87.77 10.18, 87.33 10.7 C86.88 11.22, 86.21 11.74, 85.34 12.24 C84.47 12.73, 83.37 13.22, 82.1 13.68 C80.83 14.14, 79.34 14.58, 77.7 14.98 C76.06 15.38, 74.23 15.76, 72.28 16.1 C70.33 16.44, 68.2 16.75, 66 17.02 C63.79 17.28, 61.44 17.51, 59.05 17.69 C56.65 17.87, 54.15 18.01, 51.64 18.1 C49.13 18.19, 46.54 18.24, 44 18.24 C41.45 18.24, 38.87 18.19, 36.36 18.1 C33.85 18.01, 31.34 17.87, 28.95 17.69 C26.56 17.51, 24.2 17.28, 22 17.02 C19.79 16.75, 17.67 16.44, 15.72 16.1 C13.77 15.76, 11.93 15.38, 10.29 14.98 C8.66 14.58, 7.17 14.14, 5.89 13.68 C4.62 13.22, 3.52 12.73, 2.65 12.24 C1.78 11.74, 1.11 11.22, 0.67 10.7 C0.23 10.18, 0 9.65, 0 9.12 C0 8.59, 0.23 8.06, 0.67 7.54 C1.11 7.02, 1.78 6.5, 2.65 6 C3.52 5.5, 4.62 5.02, 5.89 4.56 C7.17 4.1, 8.66 3.66, 10.29 3.26 C11.93 2.85, 13.77 2.47, 15.72 2.13 C17.67 1.79, 19.79 1.49, 22 1.22 C24.2 0.96, 26.56 0.73, 28.95 0.55 C31.34 0.37, 33.85 0.23, 36.36 0.14 C38.87 0.05, 41.45 0, 44 0 C46.54 0, 49.13 0.05, 51.64 0.14 C54.15 0.23, 56.65 0.37, 59.05 0.55 C61.44 0.73, 63.79 0.96, 66 1.22 C68.2 1.49, 70.33 1.79, 72.28 2.13 C74.23 2.47, 76.06 2.85, 77.7 3.26 C79.34 3.66, 80.83 4.1, 82.1 4.56 C83.37 5.02, 84.47 5.5, 85.34 6 C86.21 6.5, 86.88 7.02, 87.33 7.54 C87.77 8.06, 87.88 8.85, 87.99 9.12 C88.11 9.38, 88.11 8.85, 87.99 9.12" stroke="none" stroke-width="0" fill="#000000"></path><path d="M87.99 9.12 C87.99 9.65, 87.77 10.18, 87.33 10.7 C86.88 11.22, 86.21 11.74, 85.34 12.24 C84.47 12.73, 83.37 13.22, 82.1 13.68 C80.83 14.14, 79.34 14.58, 77.7 14.98 C76.06 15.38, 74.23 15.76, 72.28 16.1 C70.33 16.44, 68.2 16.75, 66 17.02 C63.79 17.28, 61.44 17.51, 59.05 17.69 C56.65 17.87, 54.15 18.01, 51.64 18.1 C49.13 18.19, 46.54 18.24, 44 18.24 C41.45 18.24, 38.87 18.19, 36.36 18.1 C33.85 18.01, 31.34 17.87, 28.95 17.69 C26.56 17.51, 24.2 17.28, 22 17.02 C19.79 16.75, 17.67 16.44, 15.72 16.1 C13.77 15.76, 11.93 15.38, 10.29 14.98 C8.66 14.58, 7.17 14.14, 5.89 13.68 C4.62 13.22, 3.52 12.73, 2.65 12.24 C1.78 11.74, 1.11 11.22, 0.67 10.7 C0.23 10.18, 0 9.65, 0 9.12 C0 8.59, 0.23 8.06, 0.67 7.54 C1.11 7.02, 1.78 6.5, 2.65 6 C3.52 5.5, 4.62 5.02, 5.89 4.56 C7.17 4.1, 8.66 3.66, 10.29 3.26 C11.93 2.85, 13.77 2.47, 15.72 2.13 C17.67 1.79, 19.79 1.49, 22 1.22 C24.2 0.96, 26.56 0.73, 28.95 0.55 C31.34 0.37, 33.85 0.23, 36.36 0.14 C38.87 0.05, 41.45 0, 44 0 C46.54 0, 49.13 0.05, 51.64 0.14 C54.15 0.23, 56.65 0.37, 59.05 0.55 C61.44 0.73, 63.79 0.96, 66 1.22 C68.2 1.49, 70.33 1.79, 72.28 2.13 C74.23 2.47, 76.06 2.85, 77.7 3.26 C79.34 3.66, 80.83 4.1, 82.1 4.56 C83.37 5.02, 84.47 5.5, 85.34 6 C86.21 6.5, 86.88 7.02, 87.33 7.54 C87.77 8.06, 87.88 8.85, 87.99 9.12 C88.11 9.38, 88.11 8.85, 87.99 9.12" stroke="#000000" stroke-width="4" fill="none"></path></g><g stroke-linecap="round" transform="translate(1501.9048845286165 130.9063885321176) rotate(0 44.21545721086045 1.9629281461765515)"><path d="M0.98 0 C34.4 0, 67.82 0, 87.45 0 C88.1 0, 88.43 0.33, 88.43 0.98 C88.43 1.72, 88.43 2.46, 88.43 2.94 C88.43 3.6, 88.1 3.93, 87.45 3.93 C54.6 3.93, 21.76 3.93, 0.98 3.93 C0.33 3.93, 0 3.6, 0 2.94 C0 2.41, 0 1.88, 0 0.98 C0 0.33, 0.33 0, 0.98 0" stroke="none" stroke-width="0" fill="#000000"></path><path d="M0.98 0 C22.71 0, 44.43 0, 87.45 0 M0.98 0 C29.15 0, 57.32 0, 87.45 0 M87.45 0 C88.1 0, 88.43 0.33, 88.43 0.98 M87.45 0 C88.1 0, 88.43 0.33, 88.43 0.98 M88.43 0.98 C88.43 1.6, 88.43 2.22, 88.43 2.94 M88.43 0.98 C88.43 1.51, 88.43 2.03, 88.43 2.94 M88.43 2.94 C88.43 3.6, 88.1 3.93, 87.45 3.93 M88.43 2.94 C88.43 3.6, 88.1 3.93, 87.45 3.93 M87.45 3.93 C53.4 3.93, 19.35 3.93, 0.98 3.93 M87.45 3.93 C53.3 3.93, 19.14 3.93, 0.98 3.93 M0.98 3.93 C0.33 3.93, 0 3.6, 0 2.94 M0.98 3.93 C0.33 3.93, 0 3.6, 0 2.94 M0 2.94 C0 2.36, 0 1.77, 0 0.98 M0 2.94 C0 2.24, 0 1.54, 0 0.98 M0 0.98 C0 0.33, 0.33 0, 0.98 0 M0 0.98 C0 0.33, 0.33 0, 0.98 0" stroke="#000000" stroke-width="4" fill="none"></path></g><g stroke-linecap="round" transform="translate(1502.1934768729525 126.85187714790709) rotate(0 43.997226749574224 9.118726705661828)"><path d="M87.99 9.12 C87.99 9.65, 87.77 10.18, 87.33 10.7 C86.88 11.22, 86.21 11.74, 85.34 12.24 C84.47 12.73, 83.37 13.22, 82.1 13.68 C80.83 14.14, 79.34 14.58, 77.7 14.98 C76.06 15.38, 74.23 15.76, 72.28 16.1 C70.33 16.44, 68.2 16.75, 66 17.02 C63.79 17.28, 61.44 17.51, 59.05 17.69 C56.65 17.87, 54.15 18.01, 51.64 18.1 C49.13 18.19, 46.54 18.24, 44 18.24 C41.45 18.24, 38.87 18.19, 36.36 18.1 C33.85 18.01, 31.34 17.87, 28.95 17.69 C26.56 17.51, 24.2 17.28, 22 17.02 C19.79 16.75, 17.67 16.44, 15.72 16.1 C13.77 15.76, 11.93 15.38, 10.29 14.98 C8.66 14.58, 7.17 14.14, 5.89 13.68 C4.62 13.22, 3.52 12.73, 2.65 12.24 C1.78 11.74, 1.11 11.22, 0.67 10.7 C0.23 10.18, 0 9.65, 0 9.12 C0 8.59, 0.23 8.06, 0.67 7.54 C1.11 7.02, 1.78 6.5, 2.65 6 C3.52 5.5, 4.62 5.02, 5.89 4.56 C7.17 4.1, 8.66 3.66, 10.29 3.26 C11.93 2.85, 13.77 2.47, 15.72 2.13 C17.67 1.79, 19.79 1.49, 22 1.22 C24.2 0.96, 26.56 0.73, 28.95 0.55 C31.34 0.37, 33.85 0.23, 36.36 0.14 C38.87 0.05, 41.45 0, 44 0 C46.54 0, 49.13 0.05, 51.64 0.14 C54.15 0.23, 56.65 0.37, 59.05 0.55 C61.44 0.73, 63.79 0.96, 66 1.22 C68.2 1.49, 70.33 1.79, 72.28 2.13 C74.23 2.47, 76.06 2.85, 77.7 3.26 C79.34 3.66, 80.83 4.1, 82.1 4.56 C83.37 5.02, 84.47 5.5, 85.34 6 C86.21 6.5, 86.88 7.02, 87.33 7.54 C87.77 8.06, 87.88 8.85, 87.99 9.12 C88.11 9.38, 88.11 8.85, 87.99 9.12" stroke="none" stroke-width="0" fill="#000000"></path><path d="M87.99 9.12 C87.99 9.65, 87.77 10.18, 87.33 10.7 C86.88 11.22, 86.21 11.74, 85.34 12.24 C84.47 12.73, 83.37 13.22, 82.1 13.68 C80.83 14.14, 79.34 14.58, 77.7 14.98 C76.06 15.38, 74.23 15.76, 72.28 16.1 C70.33 16.44, 68.2 16.75, 66 17.02 C63.79 17.28, 61.44 17.51, 59.05 17.69 C56.65 17.87, 54.15 18.01, 51.64 18.1 C49.13 18.19, 46.54 18.24, 44 18.24 C41.45 18.24, 38.87 18.19, 36.36 18.1 C33.85 18.01, 31.34 17.87, 28.95 17.69 C26.56 17.51, 24.2 17.28, 22 17.02 C19.79 16.75, 17.67 16.44, 15.72 16.1 C13.77 15.76, 11.93 15.38, 10.29 14.98 C8.66 14.58, 7.17 14.14, 5.89 13.68 C4.62 13.22, 3.52 12.73, 2.65 12.24 C1.78 11.74, 1.11 11.22, 0.67 10.7 C0.23 10.18, 0 9.65, 0 9.12 C0 8.59, 0.23 8.06, 0.67 7.54 C1.11 7.02, 1.78 6.5, 2.65 6 C3.52 5.5, 4.62 5.02, 5.89 4.56 C7.17 4.1, 8.66 3.66, 10.29 3.26 C11.93 2.85, 13.77 2.47, 15.72 2.13 C17.67 1.79, 19.79 1.49, 22 1.22 C24.2 0.96, 26.56 0.73, 28.95 0.55 C31.34 0.37, 33.85 0.23, 36.36 0.14 C38.87 0.05, 41.45 0, 44 0 C46.54 0, 49.13 0.05, 51.64 0.14 C54.15 0.23, 56.65 0.37, 59.05 0.55 C61.44 0.73, 63.79 0.96, 66 1.22 C68.2 1.49, 70.33 1.79, 72.28 2.13 C74.23 2.47, 76.06 2.85, 77.7 3.26 C79.34 3.66, 80.83 4.1, 82.1 4.56 C83.37 5.02, 84.47 5.5, 85.34 6 C86.21 6.5, 86.88 7.02, 87.33 7.54 C87.77 8.06, 87.88 8.85, 87.99 9.12 C88.11 9.38, 88.11 8.85, 87.99 9.12" stroke="#000000" stroke-width="4" fill="none"></path></g><g stroke-linecap="round" transform="translate(1502.1934768729525 120.14182172986091) rotate(0 43.997226749574224 9.118726705661828)"><path d="M87.99 9.12 C87.99 9.65, 87.77 10.18, 87.33 10.7 C86.88 11.22, 86.21 11.74, 85.34 12.24 C84.47 12.73, 83.37 13.22, 82.1 13.68 C80.83 14.14, 79.34 14.58, 77.7 14.98 C76.06 15.38, 74.23 15.76, 72.28 16.1 C70.33 16.44, 68.2 16.75, 66 17.02 C63.79 17.28, 61.44 17.51, 59.05 17.69 C56.65 17.87, 54.15 18.01, 51.64 18.1 C49.13 18.19, 46.54 18.24, 44 18.24 C41.45 18.24, 38.87 18.19, 36.36 18.1 C33.85 18.01, 31.34 17.87, 28.95 17.69 C26.56 17.51, 24.2 17.28, 22 17.02 C19.79 16.75, 17.67 16.44, 15.72 16.1 C13.77 15.76, 11.93 15.38, 10.29 14.98 C8.66 14.58, 7.17 14.14, 5.89 13.68 C4.62 13.22, 3.52 12.73, 2.65 12.24 C1.78 11.74, 1.11 11.22, 0.67 10.7 C0.23 10.18, 0 9.65, 0 9.12 C0 8.59, 0.23 8.06, 0.67 7.54 C1.11 7.02, 1.78 6.5, 2.65 6 C3.52 5.5, 4.62 5.02, 5.89 4.56 C7.17 4.1, 8.66 3.66, 10.29 3.26 C11.93 2.85, 13.77 2.47, 15.72 2.13 C17.67 1.79, 19.79 1.49, 22 1.22 C24.2 0.96, 26.56 0.73, 28.95 0.55 C31.34 0.37, 33.85 0.23, 36.36 0.14 C38.87 0.05, 41.45 0, 44 0 C46.54 0, 49.13 0.05, 51.64 0.14 C54.15 0.23, 56.65 0.37, 59.05 0.55 C61.44 0.73, 63.79 0.96, 66 1.22 C68.2 1.49, 70.33 1.79, 72.28 2.13 C74.23 2.47, 76.06 2.85, 77.7 3.26 C79.34 3.66, 80.83 4.1, 82.1 4.56 C83.37 5.02, 84.47 5.5, 85.34 6 C86.21 6.5, 86.88 7.02, 87.33 7.54 C87.77 8.06, 87.88 8.85, 87.99 9.12 C88.11 9.38, 88.11 8.85, 87.99 9.12" stroke="none" stroke-width="0" fill="#228be6"></path><path d="M87.99 9.12 C87.99 9.65, 87.77 10.18, 87.33 10.7 C86.88 11.22, 86.21 11.74, 85.34 12.24 C84.47 12.73, 83.37 13.22, 82.1 13.68 C80.83 14.14, 79.34 14.58, 77.7 14.98 C76.06 15.38, 74.23 15.76, 72.28 16.1 C70.33 16.44, 68.2 16.75, 66 17.02 C63.79 17.28, 61.44 17.51, 59.05 17.69 C56.65 17.87, 54.15 18.01, 51.64 18.1 C49.13 18.19, 46.54 18.24, 44 18.24 C41.45 18.24, 38.87 18.19, 36.36 18.1 C33.85 18.01, 31.34 17.87, 28.95 17.69 C26.56 17.51, 24.2 17.28, 22 17.02 C19.79 16.75, 17.67 16.44, 15.72 16.1 C13.77 15.76, 11.93 15.38, 10.29 14.98 C8.66 14.58, 7.17 14.14, 5.89 13.68 C4.62 13.22, 3.52 12.73, 2.65 12.24 C1.78 11.74, 1.11 11.22, 0.67 10.7 C0.23 10.18, 0 9.65, 0 9.12 C0 8.59, 0.23 8.06, 0.67 7.54 C1.11 7.02, 1.78 6.5, 2.65 6 C3.52 5.5, 4.62 5.02, 5.89 4.56 C7.17 4.1, 8.66 3.66, 10.29 3.26 C11.93 2.85, 13.77 2.47, 15.72 2.13 C17.67 1.79, 19.79 1.49, 22 1.22 C24.2 0.96, 26.56 0.73, 28.95 0.55 C31.34 0.37, 33.85 0.23, 36.36 0.14 C38.87 0.05, 41.45 0, 44 0 C46.54 0, 49.13 0.05, 51.64 0.14 C54.15 0.23, 56.65 0.37, 59.05 0.55 C61.44 0.73, 63.79 0.96, 66 1.22 C68.2 1.49, 70.33 1.79, 72.28 2.13 C74.23 2.47, 76.06 2.85, 77.7 3.26 C79.34 3.66, 80.83 4.1, 82.1 4.56 C83.37 5.02, 84.47 5.5, 85.34 6 C86.21 6.5, 86.88 7.02, 87.33 7.54 C87.77 8.06, 87.88 8.85, 87.99 9.12 C88.11 9.38, 88.11 8.85, 87.99 9.12" stroke="#228be6" stroke-width="4" fill="none"></path></g><g stroke-linecap="round" transform="translate(1505.5399124890905 72.08718142220692) rotate(0 40.38202412919975 26.73434458458999)"><path d="M0 0 L80.76 0 L80.76 53.47 L0 53.47" stroke="none" stroke-width="0" fill="#228be6"></path><path d="M0 0 C21.91 0, 43.82 0, 80.76 0 M0 0 C24.53 0, 49.06 0, 80.76 0 M80.76 0 C80.76 17.77, 80.76 35.55, 80.76 53.47 M80.76 0 C80.76 14.51, 80.76 29.01, 80.76 53.47 M80.76 53.47 C51.05 53.47, 21.34 53.47, 0 53.47 M80.76 53.47 C57.22 53.47, 33.68 53.47, 0 53.47 M0 53.47 C0 39.1, 0 24.74, 0 0 M0 53.47 C0 33.52, 0 13.58, 0 0" stroke="#228be6" stroke-width="4" fill="none"></path></g><g stroke-linecap="round" transform="translate(1502.1231149899018 56.96034517781271) rotate(0 43.997226749574224 9.118726705661857)"><path d="M87.99 9.12 C87.99 9.65, 87.77 10.18, 87.33 10.7 C86.88 11.22, 86.21 11.74, 85.34 12.24 C84.47 12.73, 83.37 13.22, 82.1 13.68 C80.83 14.14, 79.34 14.58, 77.7 14.98 C76.06 15.38, 74.23 15.76, 72.28 16.1 C70.33 16.44, 68.2 16.75, 66 17.02 C63.79 17.28, 61.44 17.51, 59.05 17.69 C56.65 17.87, 54.15 18.01, 51.64 18.1 C49.13 18.19, 46.54 18.24, 44 18.24 C41.45 18.24, 38.87 18.19, 36.36 18.1 C33.85 18.01, 31.34 17.87, 28.95 17.69 C26.56 17.51, 24.2 17.28, 22 17.02 C19.79 16.75, 17.67 16.44, 15.72 16.1 C13.77 15.76, 11.93 15.38, 10.29 14.98 C8.66 14.58, 7.17 14.14, 5.89 13.68 C4.62 13.22, 3.52 12.73, 2.65 12.24 C1.78 11.74, 1.11 11.22, 0.67 10.7 C0.23 10.18, 0 9.65, 0 9.12 C0 8.59, 0.23 8.06, 0.67 7.54 C1.11 7.02, 1.78 6.5, 2.65 6 C3.52 5.5, 4.62 5.02, 5.89 4.56 C7.17 4.1, 8.66 3.66, 10.29 3.26 C11.93 2.85, 13.77 2.47, 15.72 2.13 C17.67 1.79, 19.79 1.49, 22 1.22 C24.2 0.96, 26.56 0.73, 28.95 0.55 C31.34 0.37, 33.85 0.23, 36.36 0.14 C38.87 0.05, 41.45 0, 44 0 C46.54 0, 49.13 0.05, 51.64 0.14 C54.15 0.23, 56.65 0.37, 59.05 0.55 C61.44 0.73, 63.79 0.96, 66 1.22 C68.2 1.49, 70.33 1.79, 72.28 2.13 C74.23 2.47, 76.06 2.85, 77.7 3.26 C79.34 3.66, 80.83 4.1, 82.1 4.56 C83.37 5.02, 84.47 5.5, 85.34 6 C86.21 6.5, 86.88 7.02, 87.33 7.54 C87.77 8.06, 87.88 8.85, 87.99 9.12 C88.11 9.38, 88.11 8.85, 87.99 9.12" stroke="none" stroke-width="0" fill="#ffffff"></path><path d="M87.99 9.12 C87.99 9.65, 87.77 10.18, 87.33 10.7 C86.88 11.22, 86.21 11.74, 85.34 12.24 C84.47 12.73, 83.37 13.22, 82.1 13.68 C80.83 14.14, 79.34 14.58, 77.7 14.98 C76.06 15.38, 74.23 15.76, 72.28 16.1 C70.33 16.44, 68.2 16.75, 66 17.02 C63.79 17.28, 61.44 17.51, 59.05 17.69 C56.65 17.87, 54.15 18.01, 51.64 18.1 C49.13 18.19, 46.54 18.24, 44 18.24 C41.45 18.24, 38.87 18.19, 36.36 18.1 C33.85 18.01, 31.34 17.87, 28.95 17.69 C26.56 17.51, 24.2 17.28, 22 17.02 C19.79 16.75, 17.67 16.44, 15.72 16.1 C13.77 15.76, 11.93 15.38, 10.29 14.98 C8.66 14.58, 7.17 14.14, 5.89 13.68 C4.62 13.22, 3.52 12.73, 2.65 12.24 C1.78 11.74, 1.11 11.22, 0.67 10.7 C0.23 10.18, 0 9.65, 0 9.12 C0 8.59, 0.23 8.06, 0.67 7.54 C1.11 7.02, 1.78 6.5, 2.65 6 C3.52 5.5, 4.62 5.02, 5.89 4.56 C7.17 4.1, 8.66 3.66, 10.29 3.26 C11.93 2.85, 13.77 2.47, 15.72 2.13 C17.67 1.79, 19.79 1.49, 22 1.22 C24.2 0.96, 26.56 0.73, 28.95 0.55 C31.34 0.37, 33.85 0.23, 36.36 0.14 C38.87 0.05, 41.45 0, 44 0 C46.54 0, 49.13 0.05, 51.64 0.14 C54.15 0.23, 56.65 0.37, 59.05 0.55 C61.44 0.73, 63.79 0.96, 66 1.22 C68.2 1.49, 70.33 1.79, 72.28 2.13 C74.23 2.47, 76.06 2.85, 77.7 3.26 C79.34 3.66, 80.83 4.1, 82.1 4.56 C83.37 5.02, 84.47 5.5, 85.34 6 C86.21 6.5, 86.88 7.02, 87.33 7.54 C87.77 8.06, 87.88 8.85, 87.99 9.12 C88.11 9.38, 88.11 8.85, 87.99 9.12" stroke="#000000" stroke-width="4" fill="none"></path></g><g stroke-linecap="round" transform="translate(1502.1231149899018 50.688181264246055) rotate(0 43.997226749574224 9.118726705661828)"><path d="M87.99 9.12 C87.99 9.65, 87.77 10.18, 87.33 10.7 C86.88 11.22, 86.21 11.74, 85.34 12.24 C84.47 12.73, 83.37 13.22, 82.1 13.68 C80.83 14.14, 79.34 14.58, 77.7 14.98 C76.06 15.38, 74.23 15.76, 72.28 16.1 C70.33 16.44, 68.2 16.75, 66 17.02 C63.79 17.28, 61.44 17.51, 59.05 17.69 C56.65 17.87, 54.15 18.01, 51.64 18.1 C49.13 18.19, 46.54 18.24, 44 18.24 C41.45 18.24, 38.87 18.19, 36.36 18.1 C33.85 18.01, 31.34 17.87, 28.95 17.69 C26.56 17.51, 24.2 17.28, 22 17.02 C19.79 16.75, 17.67 16.44, 15.72 16.1 C13.77 15.76, 11.93 15.38, 10.29 14.98 C8.66 14.58, 7.17 14.14, 5.89 13.68 C4.62 13.22, 3.52 12.73, 2.65 12.24 C1.78 11.74, 1.11 11.22, 0.67 10.7 C0.23 10.18, 0 9.65, 0 9.12 C0 8.59, 0.23 8.06, 0.67 7.54 C1.11 7.02, 1.78 6.5, 2.65 6 C3.52 5.5, 4.62 5.02, 5.89 4.56 C7.17 4.1, 8.66 3.66, 10.29 3.26 C11.93 2.85, 13.77 2.47, 15.72 2.13 C17.67 1.79, 19.79 1.49, 22 1.22 C24.2 0.96, 26.56 0.73, 28.95 0.55 C31.34 0.37, 33.85 0.23, 36.36 0.14 C38.87 0.05, 41.45 0, 44 0 C46.54 0, 49.13 0.05, 51.64 0.14 C54.15 0.23, 56.65 0.37, 59.05 0.55 C61.44 0.73, 63.79 0.96, 66 1.22 C68.2 1.49, 70.33 1.79, 72.28 2.13 C74.23 2.47, 76.06 2.85, 77.7 3.26 C79.34 3.66, 80.83 4.1, 82.1 4.56 C83.37 5.02, 84.47 5.5, 85.34 6 C86.21 6.5, 86.88 7.02, 87.33 7.54 C87.77 8.06, 87.88 8.85, 87.99 9.12 C88.11 9.38, 88.11 8.85, 87.99 9.12" stroke="none" stroke-width="0" fill="#000000"></path><path d="M87.99 9.12 C87.99 9.65, 87.77 10.18, 87.33 10.7 C86.88 11.22, 86.21 11.74, 85.34 12.24 C84.47 12.73, 83.37 13.22, 82.1 13.68 C80.83 14.14, 79.34 14.58, 77.7 14.98 C76.06 15.38, 74.23 15.76, 72.28 16.1 C70.33 16.44, 68.2 16.75, 66 17.02 C63.79 17.28, 61.44 17.51, 59.05 17.69 C56.65 17.87, 54.15 18.01, 51.64 18.1 C49.13 18.19, 46.54 18.24, 44 18.24 C41.45 18.24, 38.87 18.19, 36.36 18.1 C33.85 18.01, 31.34 17.87, 28.95 17.69 C26.56 17.51, 24.2 17.28, 22 17.02 C19.79 16.75, 17.67 16.44, 15.72 16.1 C13.77 15.76, 11.93 15.38, 10.29 14.98 C8.66 14.58, 7.17 14.14, 5.89 13.68 C4.62 13.22, 3.52 12.73, 2.65 12.24 C1.78 11.74, 1.11 11.22, 0.67 10.7 C0.23 10.18, 0 9.65, 0 9.12 C0 8.59, 0.23 8.06, 0.67 7.54 C1.11 7.02, 1.78 6.5, 2.65 6 C3.52 5.5, 4.62 5.02, 5.89 4.56 C7.17 4.1, 8.66 3.66, 10.29 3.26 C11.93 2.85, 13.77 2.47, 15.72 2.13 C17.67 1.79, 19.79 1.49, 22 1.22 C24.2 0.96, 26.56 0.73, 28.95 0.55 C31.34 0.37, 33.85 0.23, 36.36 0.14 C38.87 0.05, 41.45 0, 44 0 C46.54 0, 49.13 0.05, 51.64 0.14 C54.15 0.23, 56.65 0.37, 59.05 0.55 C61.44 0.73, 63.79 0.96, 66 1.22 C68.2 1.49, 70.33 1.79, 72.28 2.13 C74.23 2.47, 76.06 2.85, 77.7 3.26 C79.34 3.66, 80.83 4.1, 82.1 4.56 C83.37 5.02, 84.47 5.5, 85.34 6 C86.21 6.5, 86.88 7.02, 87.33 7.54 C87.77 8.06, 87.88 8.85, 87.99 9.12 C88.11 9.38, 88.11 8.85, 87.99 9.12" stroke="#000000" stroke-width="4" fill="none"></path></g><g stroke-linecap="round" transform="translate(1503.4787831168778 51.37867321795426) rotate(0 42.641558622598836 10.96861934311957)"><path d="M85.28 10.97 C85.28 11.6, 85.06 12.25, 84.64 12.87 C84.21 13.5, 83.56 14.12, 82.71 14.72 C81.87 15.32, 80.8 15.9, 79.57 16.45 C78.34 17, 76.89 17.53, 75.31 18.02 C73.72 18.51, 71.94 18.96, 70.05 19.37 C68.16 19.78, 66.1 20.15, 63.96 20.47 C61.82 20.79, 59.55 21.06, 57.23 21.28 C54.91 21.49, 52.48 21.66, 50.05 21.77 C47.62 21.88, 45.11 21.94, 42.64 21.94 C40.17 21.94, 37.67 21.88, 35.24 21.77 C32.81 21.66, 30.38 21.49, 28.06 21.28 C25.74 21.06, 23.46 20.79, 21.32 20.47 C19.18 20.15, 17.12 19.78, 15.23 19.37 C13.34 18.96, 11.56 18.51, 9.98 18.02 C8.39 17.53, 6.95 17, 5.71 16.45 C4.48 15.9, 3.42 15.32, 2.57 14.72 C1.73 14.12, 1.08 13.5, 0.65 12.87 C0.22 12.25, 0 11.6, 0 10.97 C0 10.33, 0.22 9.69, 0.65 9.06 C1.08 8.44, 1.73 7.81, 2.57 7.22 C3.42 6.62, 4.48 6.03, 5.71 5.48 C6.95 4.93, 8.39 4.4, 9.98 3.92 C11.56 3.43, 13.34 2.97, 15.23 2.57 C17.12 2.16, 19.18 1.79, 21.32 1.47 C23.46 1.15, 25.74 0.88, 28.06 0.66 C30.38 0.44, 32.81 0.28, 35.24 0.17 C37.67 0.06, 40.17 0, 42.64 0 C45.11 0, 47.62 0.06, 50.05 0.17 C52.48 0.28, 54.91 0.44, 57.23 0.66 C59.55 0.88, 61.82 1.15, 63.96 1.47 C66.1 1.79, 68.16 2.16, 70.05 2.57 C71.94 2.97, 73.72 3.43, 75.31 3.92 C76.89 4.4, 78.34 4.93, 79.57 5.48 C80.8 6.03, 81.87 6.62, 82.71 7.22 C83.56 7.81, 84.21 8.44, 84.64 9.06 C85.06 9.69, 85.18 10.65, 85.28 10.97 C85.39 11.29, 85.39 10.65, 85.28 10.97" stroke="none" stroke-width="0" fill="#ffffff"></path><path d="M85.28 10.97 C85.28 11.6, 85.06 12.25, 84.64 12.87 C84.21 13.5, 83.56 14.12, 82.71 14.72 C81.87 15.32, 80.8 15.9, 79.57 16.45 C78.34 17, 76.89 17.53, 75.31 18.02 C73.72 18.51, 71.94 18.96, 70.05 19.37 C68.16 19.78, 66.1 20.15, 63.96 20.47 C61.82 20.79, 59.55 21.06, 57.23 21.28 C54.91 21.49, 52.48 21.66, 50.05 21.77 C47.62 21.88, 45.11 21.94, 42.64 21.94 C40.17 21.94, 37.67 21.88, 35.24 21.77 C32.81 21.66, 30.38 21.49, 28.06 21.28 C25.74 21.06, 23.46 20.79, 21.32 20.47 C19.18 20.15, 17.12 19.78, 15.23 19.37 C13.34 18.96, 11.56 18.51, 9.98 18.02 C8.39 17.53, 6.95 17, 5.71 16.45 C4.48 15.9, 3.42 15.32, 2.57 14.72 C1.73 14.12, 1.08 13.5, 0.65 12.87 C0.22 12.25, 0 11.6, 0 10.97 C0 10.33, 0.22 9.69, 0.65 9.06 C1.08 8.44, 1.73 7.81, 2.57 7.22 C3.42 6.62, 4.48 6.03, 5.71 5.48 C6.95 4.93, 8.39 4.4, 9.98 3.92 C11.56 3.43, 13.34 2.97, 15.23 2.57 C17.12 2.16, 19.18 1.79, 21.32 1.47 C23.46 1.15, 25.74 0.88, 28.06 0.66 C30.38 0.44, 32.81 0.28, 35.24 0.17 C37.67 0.06, 40.17 0, 42.64 0 C45.11 0, 47.62 0.06, 50.05 0.17 C52.48 0.28, 54.91 0.44, 57.23 0.66 C59.55 0.88, 61.82 1.15, 63.96 1.47 C66.1 1.79, 68.16 2.16, 70.05 2.57 C71.94 2.97, 73.72 3.43, 75.31 3.92 C76.89 4.4, 78.34 4.93, 79.57 5.48 C80.8 6.03, 81.87 6.62, 82.71 7.22 C83.56 7.81, 84.21 8.44, 84.64 9.06 C85.06 9.69, 85.18 10.65, 85.28 10.97 C85.39 11.29, 85.39 10.65, 85.28 10.97" stroke="#000000" stroke-width="4" fill="none"></path></g><g stroke-linecap="round"><g transform="translate(1590.2565565618625 59.63013836234592) rotate(0 0.10402475638545639 37.81617280407775)"><path d="M0 0 C0.08 28.31, 0.16 56.63, 0.21 75.63 M0 0 C0.07 25.51, 0.14 51.01, 0.21 75.63" stroke="#000000" stroke-width="4" fill="none"></path></g></g><mask></mask><g stroke-linecap="round"><g transform="translate(1502.0361292354746 59.9422334664564) rotate(0 -0.15605380254123702 37.556094245151)"><path d="M0 0 C-0.12 29.01, -0.24 58.02, -0.31 75.11 M0 0 C-0.11 25.81, -0.21 51.62, -0.31 75.11" stroke="#000000" stroke-width="4" fill="none"></path></g></g><mask></mask><g transform="translate(1511.8568816355046 85.35862038177078) rotate(0 34.53103407241565 22.57522010308699)"><text x="34.53103407241564" y="0" font-family="Virgil, Segoe UI Emoji" font-size="36.12035216493918px" fill="#ffffff" text-anchor="middle" style="white-space: pre;" direction="ltr" dominant-baseline="text-before-edge">SQL</text></g><g transform="translate(1510.2232956313196 157.32371091113242) rotate(0 39.551979064941406 10)"><text x="39.551979064941406" y="0" font-family="Virgil, Segoe UI Emoji" font-size="16px" fill="#000000" text-anchor="middle" style="white-space: pre;" direction="ltr" dominant-baseline="text-before-edge">Database</text></g><g mask="url(#mask-qzDjRvQT69VOAIDljYVvj)" stroke-linecap="round"><g transform="translate(1368.467458736473 76.77903950366073) rotate(0 68.10538572233645 -0.015181459807365627)"><path d="M-0.11 -0.14 C22.6 -0.14, 113.63 -0.11, 136.33 -0.07 M0.09 0.11 C22.79 0.13, 113.57 0.03, 136.27 0.06" stroke="#1e1e1e" stroke-width="2" fill="none"></path></g><g transform="translate(1368.467458736473 76.77903950366073) rotate(0 68.10538572233645 -0.015181459807365627)"><path d="M108.08 10.32 C117.41 7.1, 127.03 3.09, 136.27 0.06 M108.08 10.32 C117.37 7.08, 126.4 3.72, 136.27 0.06" stroke="#1e1e1e" stroke-width="2" fill="none"></path></g><g transform="translate(1368.467458736473 76.77903950366073) rotate(0 68.10538572233645 -0.015181459807365627)"><path d="M108.08 -10.2 C117.39 -6.44, 127.01 -3.47, 136.27 0.06 M108.08 -10.2 C117.39 -6.73, 126.42 -3.37, 136.27 0.06" stroke="#1e1e1e" stroke-width="2" fill="none"></path></g></g><mask id="mask-qzDjRvQT69VOAIDljYVvj"><rect x="0" y="0" fill="#fff" width="1604.66803028222" height="176.8309435266221"></rect><rect x="1408.2477753321002" y="64.30499151514141" fill="#000" width="56.63993835449219" height="25" opacity="1"></rect></mask><g transform="translate(1408.2477753321002 64.30499151514141) rotate(0 28.32506912670908 12.458866528711951)"><text x="28.319969177246094" y="0" font-family="Virgil, Segoe UI Emoji" font-size="20px" fill="#1e1e1e" text-anchor="middle" style="white-space: pre;" direction="ltr" dominant-baseline="text-before-edge">entity</text></g><g mask="url(#mask-9mgi0UOdLw8L5t4HARuqM)" stroke-linecap="round"><g transform="translate(1500.2855850681494 126.29556753149251) rotate(0 -65.9048040382338 0.6977632003736005)"><path d="M0.14 -0.1 C-21.87 0.17, -109.94 1.24, -131.95 1.49 M0.03 0.18 C-21.95 0.42, -109.74 1.06, -131.68 1.3" stroke="#1e1e1e" stroke-width="2" fill="none"></path></g><g transform="translate(1500.2855850681494 126.29556753149251) rotate(0 -65.9048040382338 0.6977632003736005)"><path d="M-103.58 -9.21 C-114.61 -5.38, -125 -1.31, -131.68 1.3 M-103.58 -9.21 C-112.83 -5.86, -122.09 -2.43, -131.68 1.3" stroke="#1e1e1e" stroke-width="2" fill="none"></path></g><g transform="translate(1500.2855850681494 126.29556753149251) rotate(0 -65.9048040382338 0.6977632003736005)"><path d="M-103.4 11.31 C-114.47 7.23, -124.93 3.4, -131.68 1.3 M-103.4 11.31 C-112.72 7.94, -122.03 4.65, -131.68 1.3" stroke="#1e1e1e" stroke-width="2" fill="none"></path></g></g><mask id="mask-9mgi0UOdLw8L5t4HARuqM"><rect x="0" y="0" fill="#fff" width="1732.1037668863312" height="227.658167387324"></rect><rect x="1406.0565249818123" y="114.47686745940825" fill="#000" width="56.63993835449219" height="25" opacity="1"></rect></mask><g transform="translate(1406.0565249818123 114.47686745940825) rotate(0 28.324256048103166 12.516463272457855)"><text x="28.319969177246094" y="0" font-family="Virgil, Segoe UI Emoji" font-size="20px" fill="#1e1e1e" text-anchor="middle" style="white-space: pre;" direction="ltr" dominant-baseline="text-before-edge">entity</text></g><g stroke-linecap="round"><g transform="translate(995.7401582659478 74.88732590845069) rotate(0 119.09835730652475 -0.22494173664281902)"><path d="M-0.1 -0.04 C39.58 -0.08, 198.32 -0.18, 238.04 -0.21 M0.11 -0.19 C39.85 -0.26, 198.63 -0.36, 238.3 -0.41" stroke="#1e1e1e" stroke-width="2" fill="none"></path></g><g transform="translate(995.7401582659478 74.88732590845069) rotate(0 119.09835730652475 -0.22494173664281902)"><path d="M210.12 9.88 C217.1 7.05, 224.47 4.83, 238.3 -0.41 M210.12 9.88 C220.49 6.01, 230.8 2.37, 238.3 -0.41" stroke="#1e1e1e" stroke-width="2" fill="none"></path></g><g transform="translate(995.7401582659478 74.88732590845069) rotate(0 119.09835730652475 -0.22494173664281902)"><path d="M210.1 -10.65 C217.09 -8.33, 224.47 -5.41, 238.3 -0.41 M210.1 -10.65 C220.46 -6.98, 230.78 -3.08, 238.3 -0.41" stroke="#1e1e1e" stroke-width="2" fill="none"></path></g></g><mask></mask><g stroke-linecap="round"><g transform="translate(1238.1643914424392 142.38889967793153) rotate(0 -121.23577316825612 0.08749325141167219)"><path d="M0.04 -0.07 C-40.35 -0.05, -201.98 -0.02, -242.41 0.01 M-0.12 0.21 C-40.52 0.27, -202.09 0.26, -242.51 0.21" stroke="#1e1e1e" stroke-width="2" fill="none"></path></g><g transform="translate(1238.1643914424392 142.38889967793153) rotate(0 -121.23577316825612 0.08749325141167219)"><path d="M-214.32 -10.04 C-221.67 -7.38, -228.71 -4.95, -242.51 0.21 M-214.32 -10.04 C-225.05 -5.99, -236.01 -2.18, -242.51 0.21" stroke="#1e1e1e" stroke-width="2" fill="none"></path></g><g transform="translate(1238.1643914424392 142.38889967793153) rotate(0 -121.23577316825612 0.08749325141167219)"><path d="M-214.33 10.48 C-221.66 7.9, -228.69 5.08, -242.51 0.21 M-214.33 10.48 C-225.03 6.65, -235.99 2.58, -242.51 0.21" stroke="#1e1e1e" stroke-width="2" fill="none"></path></g></g><mask></mask><g transform="translate(1008.6997819687965 10) rotate(0 91.56990814208984 12.5)"><text x="0" y="0" font-family="Virgil, Segoe UI Emoji" font-size="20px" fill="#1e1e1e" text-anchor="start" style="white-space: pre;" direction="ltr" dominant-baseline="text-before-edge">updateProductDto</text></g><g transform="translate(1010.2450956401781 46.01683244801518) rotate(0 90.0599136352539 12.5)"><text x="0" y="0" font-family="Virgil, Segoe UI Emoji" font-size="20px" fill="#1e1e1e" text-anchor="start" style="white-space: pre;" direction="ltr" dominant-baseline="text-before-edge">createProductDto</text></g><g stroke-linecap="round" transform="translate(805.6968880392665 106.18878204653925) rotate(0 51.4285568963914 40)"><path d="M2.85 7.77 C2.85 7.77, 2.85 7.77, 2.85 7.77 M2.85 7.77 C2.85 7.77, 2.85 7.77, 2.85 7.77 M1.01 22.08 C4.83 15.55, 9.5 12.97, 20.04 0.19 M1.01 22.08 C7.28 16.18, 13.21 8.03, 20.04 0.19 M1.14 34.12 C10.01 20.38, 22.45 9.65, 30.67 0.16 M1.14 34.12 C10.14 24.58, 19.63 13.01, 30.67 0.16 M1.28 46.16 C12.67 29.44, 25.62 15.03, 41.3 0.12 M1.28 46.16 C10.41 33.97, 20.31 22.33, 41.3 0.12 M0.75 58.96 C10.23 46.07, 22.4 34.2, 51.93 0.09 M0.75 58.96 C12.46 43.91, 25.24 30.88, 51.93 0.09 M2.86 68.73 C18.67 49.22, 38.74 29.44, 62.56 0.05 M2.86 68.73 C19.28 49.19, 34.86 31.62, 62.56 0.05 M6.93 76.25 C21.44 60.27, 34.59 41.87, 73.19 0.02 M6.93 76.25 C28.66 50.7, 52.85 23.71, 73.19 0.02 M14.93 79.23 C35.79 53.53, 56.98 30.09, 83.16 0.74 M14.93 79.23 C28.27 61.77, 43.31 45.73, 83.16 0.74 M24.25 80.7 C45.67 59.4, 63.93 32.92, 92.48 2.22 M24.25 80.7 C47.86 54.28, 71.97 25.8, 92.48 2.22 M34.88 80.67 C49.7 65.71, 63.35 47.32, 99.17 6.71 M34.88 80.67 C58.09 53.39, 82.79 25.78, 99.17 6.71 M45.51 80.64 C60.35 62.72, 74.97 48.31, 102.59 14.98 M45.51 80.64 C58.44 66.08, 71.06 49.31, 102.59 14.98 M56.14 80.6 C66.31 66.55, 78.44 55.57, 103.38 26.26 M56.14 80.6 C73.56 61.04, 91.52 39.95, 103.38 26.26 M66.77 80.57 C75.96 72.75, 85.54 60.33, 102.85 39.06 M66.77 80.57 C79.26 65.34, 92.66 51.02, 102.85 39.06 M77.4 80.53 C83.32 71.32, 92.42 65.2, 102.99 51.1 M77.4 80.53 C84.07 73.3, 90.97 65.72, 102.99 51.1 M89.34 78.99 C91.7 73.7, 95.22 71.4, 103.12 63.14 M89.34 78.99 C92.62 74.88, 95.72 70.98, 103.12 63.14" stroke="#ffc9c9" stroke-width="1" fill="none"></path><path d="M20 0 C34.48 -0.32, 53.13 -0.43, 82.86 0 M20 0 C41.2 0.85, 61.74 0.83, 82.86 0 M82.86 0 C95.63 1.07, 101.96 5.2, 102.86 20 M82.86 0 C97.2 1.71, 102.93 6.06, 102.86 20 M102.86 20 C104.16 34.19, 102.78 49.44, 102.86 60 M102.86 20 C103.03 35.24, 102.82 49.86, 102.86 60 M102.86 60 C103.61 72.09, 95.39 81.1, 82.86 80 M102.86 60 C104.19 72.98, 95.35 79.64, 82.86 80 M82.86 80 C59.54 80.59, 39.71 77.8, 20 80 M82.86 80 C61.14 80.3, 37.94 80.31, 20 80 M20 80 C7.2 80.74, 0 75.08, 0 60 M20 80 C5.42 80.99, -1.81 71.87, 0 60 M0 60 C0.64 53.39, 1.67 44.09, 0 20 M0 60 C-0.29 51.47, -0.2 43.14, 0 20 M0 20 C0.24 6.45, 6.72 -0.66, 20 0 M0 20 C-1.34 8.92, 6.02 1.77, 20 0" stroke="#f08c00" stroke-width="2" fill="none"></path></g><g transform="translate(811.4754891861462 121.18878204653925) rotate(0 45.64995574951172 25)"><text x="45.64995574951172" y="0" font-family="Virgil, Segoe UI Emoji" font-size="20px" fill="#f08c00" text-anchor="middle" style="white-space: pre;" direction="ltr" dominant-baseline="text-before-edge">converter</text><text x="45.64995574951172" y="25" font-family="Virgil, Segoe UI Emoji" font-size="20px" fill="#f08c00" text-anchor="middle" style="white-space: pre;" direction="ltr" dominant-baseline="text-before-edge">Dto</text></g><g stroke-linecap="round" transform="translate(363.79208253796503 46.71786965814664) rotate(0 95.7142857142857 77.14285714285714)"><path d="M32 0 C57.82 0.03, 84.42 -2.03, 159.43 0 M32 0 C59.13 -0.41, 84.49 -1.35, 159.43 0 M159.43 0 C178.78 0.51, 189.9 9.69, 191.43 32 M159.43 0 C181.69 -1.86, 190.47 9.33, 191.43 32 M191.43 32 C191.85 53.51, 192.97 70.61, 191.43 122.29 M191.43 32 C191.17 52.18, 191.66 70.78, 191.43 122.29 M191.43 122.29 C192.39 143.66, 179.32 153.1, 159.43 154.29 M191.43 122.29 C191.02 142.29, 182.47 153.36, 159.43 154.29 M159.43 154.29 C122.58 154.47, 86.95 155.03, 32 154.29 M159.43 154.29 C124.31 153.43, 89.81 153.84, 32 154.29 M32 154.29 C8.76 156.14, -1.11 141.76, 0 122.29 M32 154.29 C12.08 154.6, -1.46 143.58, 0 122.29 M0 122.29 C-0.72 92.87, -1.38 60.57, 0 32 M0 122.29 C-0.66 90.43, 0.11 58.08, 0 32 M0 32 C1.37 11.96, 10.49 0.15, 32 0 M0 32 C1.62 10.17, 9.81 -0.32, 32 0" stroke="#1971c2" stroke-width="2" fill="none"></path></g><g transform="translate(395.456395718071 106.36072680100375) rotate(0 64.04997253417969 17.5)"><text x="64.04997253417969" y="0" font-family="Virgil, Segoe UI Emoji" font-size="28px" fill="#1e1e1e" text-anchor="middle" style="white-space: pre;" direction="ltr" dominant-baseline="text-before-edge">controller</text></g><g stroke-linecap="round"><g transform="translate(556.2206539665365 76.15960178200459) rotate(0 110.04075227985685 -1.2905187417828472)"><path d="M-0.01 -0.04 C36.71 -0.49, 183.57 -2.12, 220.28 -2.54 M-0.2 -0.19 C36.51 -0.56, 183.45 -2.01, 220.17 -2.39" stroke="#1e1e1e" stroke-width="2" fill="none"></path></g><g transform="translate(556.2206539665365 76.15960178200459) rotate(0 110.04075227985685 -1.2905187417828472)"><path d="M192.09 8.15 C199.91 5.23, 207.74 2.19, 220.17 -2.39 M192.09 8.15 C198.09 5.96, 203.79 3.67, 220.17 -2.39" stroke="#1e1e1e" stroke-width="2" fill="none"></path></g><g transform="translate(556.2206539665365 76.15960178200459) rotate(0 110.04075227985685 -1.2905187417828472)"><path d="M191.88 -12.37 C199.79 -9.5, 207.68 -6.76, 220.17 -2.39 M191.88 -12.37 C197.93 -10.23, 203.68 -8.19, 220.17 -2.39" stroke="#1e1e1e" stroke-width="2" fill="none"></path></g></g><mask></mask><g transform="translate(569.9014822426719 10.313122285564816) rotate(0 91.56990814208984 12.5)"><text x="0" y="0" font-family="Virgil, Segoe UI Emoji" font-size="20px" fill="#1e1e1e" text-anchor="start" style="white-space: pre;" direction="ltr" dominant-baseline="text-before-edge">updateProductDto</text></g><g transform="translate(568.7282608361891 41.678196806584026) rotate(0 90.0599136352539 12.5)"><text x="0" y="0" font-family="Virgil, Segoe UI Emoji" font-size="20px" fill="#1e1e1e" text-anchor="start" style="white-space: pre;" direction="ltr" dominant-baseline="text-before-edge">createProductDto</text></g><g stroke-linecap="round"><g transform="translate(804.6968880392665 145.87847926313685) rotate(0 -124.23396443353091 1.4961853645858127)"><path d="M-0.15 -0.08 C-41.55 0.42, -207.05 2.37, -248.42 2.9 M0.05 0.21 C-41.37 0.74, -207.1 2.63, -248.52 3.07" stroke="#1e1e1e" stroke-width="2" fill="none"></path></g><g transform="translate(804.6968880392665 145.87847926313685) rotate(0 -124.23396443353091 1.4961853645858127)"><path d="M-220.44 -7.5 C-228.91 -4.31, -237.14 -1.15, -248.52 3.07 M-220.44 -7.5 C-231.03 -3.64, -241.72 0.66, -248.52 3.07" stroke="#1e1e1e" stroke-width="2" fill="none"></path></g><g transform="translate(804.6968880392665 145.87847926313685) rotate(0 -124.23396443353091 1.4961853645858127)"><path d="M-220.21 13.02 C-228.73 10.13, -237.03 7.23, -248.52 3.07 M-220.21 13.02 C-230.92 9.07, -241.7 5.56, -248.52 3.07" stroke="#1e1e1e" stroke-width="2" fill="none"></path></g></g><mask></mask><g transform="translate(568.4091087307667 163.64648468325822) rotate(0 98.71989440917969 12.5)"><text x="0" y="0" font-family="Virgil, Segoe UI Emoji" font-size="20px" fill="#1e1e1e" text-anchor="start" style="white-space: pre;" direction="ltr" dominant-baseline="text-before-edge">responseProductDto</text></g><g stroke-linecap="round" transform="translate(10 63.64805780951116) rotate(0 62.3924721356866 63.832298415740894)"><path d="M0 0 C37.94 0, 75.89 0, 124.78 0 M0 0 C39.49 0, 78.99 0, 124.78 0 M124.78 0 C124.78 34.66, 124.78 69.33, 124.78 127.66 M124.78 0 C124.78 26.53, 124.78 53.07, 124.78 127.66 M124.78 127.66 C90.47 127.66, 56.16 127.66, 0 127.66 M124.78 127.66 C92.39 127.66, 59.99 127.66, 0 127.66 M0 127.66 C0 98.65, 0 69.64, 0 0 M0 127.66 C0 81.44, 0 35.21, 0 0" stroke="#e95d8e" stroke-width="2" fill="none"></path></g><g stroke-linecap="round"><g transform="translate(10.959884186704414 88.60504666378552) rotate(0 61.91253004233516 -0.4799420933514398)"><path d="M0 0 C31.51 -0.24, 63.03 -0.49, 123.83 -0.96 M0 0 C32.22 -0.25, 64.44 -0.5, 123.83 -0.96" stroke="#e95d8e" stroke-width="2" fill="none"></path></g></g><mask></mask><g stroke-linecap="round"><g transform="translate(25.358146987245618 75.64661014329744) rotate(0 3.35959465346005 0)"><path d="M0 0 C2.66 0, 5.32 0, 6.72 0 M0 0 C1.41 0, 2.81 0, 6.72 0" stroke="#e95d8e" stroke-width="2" fill="none"></path></g></g><mask></mask><g stroke-linecap="round"><g transform="translate(44.075888627952395 75.64661014329744) rotate(0 2.8796525601086103 0)"><path d="M0 0 C1.34 0, 2.67 0, 5.76 0 M0 0 C1.71 0, 3.42 0, 5.76 0" stroke="#e95d8e" stroke-width="2" fill="none"></path></g></g><mask></mask><g stroke-linecap="round"><g transform="translate(51.27502002822382 103.00330946432825) rotate(0 15.83808908059737 0)"><path d="M0 0 C9.04 0, 18.08 0, 31.68 0 M0 0 C11.69 0, 23.37 0, 31.68 0" stroke="#e95d8e" stroke-width="2" fill="none"></path></g></g><mask></mask><g stroke-linecap="round"><g transform="translate(119.91861913226461 176.40712631109375) rotate(0 -36.96742094284636 -27.80931797837556)"><path d="M0 0 C-23.2 0.16, -46.4 0.32, -74.4 0.51 M0 0 C-23.99 0.16, -47.97 0.33, -74.4 0.51 M-74.4 0.51 C-74.4 -21.15, -74.4 -42.81, -74.4 -55.17 M-74.4 0.51 C-74.4 -15.71, -74.4 -31.93, -74.4 -55.17 M-74.4 -55.17 C-45.64 -55.53, -16.88 -55.9, 0.47 -56.13 M-74.4 -55.17 C-49.12 -55.49, -23.84 -55.81, 0.47 -56.13 M0.47 -56.13 C0.33 -39.6, 0.19 -23.08, 0 0 M0.47 -56.13 C0.29 -34.2, 0.1 -12.28, 0 0" stroke="#e95d8e" stroke-width="2" fill="none"></path></g></g><mask></mask><g stroke-linecap="round"><g transform="translate(24.398262800543932 122.20099319838812) rotate(0 0 6.23924721356866)"><path d="M0 0 C0 2.71, 0 5.41, 0 12.48 M0 0 C0 4.2, 0 8.39, 0 12.48" stroke="#e95d8e" stroke-width="2" fill="none"></path></g></g><mask></mask><g stroke-linecap="round"><g transform="translate(24.398262800543932 111.6422671446565) rotate(0 0 -4.31947884016293)"><path d="M0 0 C0 -2.35, 0 -4.69, 0 -8.64 M0 0 C0 -1.8, 0 -3.59, 0 -8.64" stroke="#e95d8e" stroke-width="2" fill="none"></path></g></g><mask></mask><g stroke-linecap="round"><g transform="translate(25.358146987244538 103.00330946432825) rotate(0 5.7593051202172205 0)"><path d="M0 0 C2.61 0, 5.23 0, 11.52 0 M0 0 C4.44 0, 8.89 0, 11.52 0" stroke="#e95d8e" stroke-width="2" fill="none"></path></g></g><mask></mask><g stroke-linecap="round"><g transform="translate(109.82795541709964 111.16232505130353) rotate(0 0 -3.35959465346005)"><path d="M0 0 C0 -2.23, 0 -4.45, 0 -6.72 M0 0 C0 -2.06, 0 -4.11, 0 -6.72" stroke="#e95d8e" stroke-width="2" fill="none"></path></g></g><mask></mask><g stroke-linecap="round"><g transform="translate(98.30934517666464 103.00330946432825) rotate(0 5.7593051202172205 0)"><path d="M0 0 C2.81 0, 5.62 0, 11.52 0 M0 0 C2.58 0, 5.17 0, 11.52 0" stroke="#e95d8e" stroke-width="2" fill="none"></path></g></g><mask></mask><g stroke-linecap="round"><g transform="translate(24.398262800543932 155.31699763963348) rotate(0 0 -4.31947884016293)"><path d="M0 0 C0 -2.19, 0 -4.37, 0 -8.64 M0 0 C0 -3.04, 0 -6.09, 0 -8.64" stroke="#e95d8e" stroke-width="2" fill="none"></path></g></g><mask></mask><g stroke-linecap="round"><g transform="translate(24.398262800544956 156.7568239196881) rotate(0 4.799420933514369 0)"><path d="M0 0 C3.73 0, 7.47 0, 9.6 0 M0 0 C2.8 0, 5.59 0, 9.6 0" stroke="#e95d8e" stroke-width="2" fill="none"></path></g></g><mask></mask><g transform="translate(42.989472776409286 206.79719356300149) rotate(0 35.881980895996094 17.5)"><text x="35.881980895996094" y="0" font-family="Virgil, Segoe UI Emoji" font-size="28px" fill="#e03131" text-anchor="middle" style="white-space: pre;" direction="ltr" dominant-baseline="text-before-edge">client</text></g><g stroke-linecap="round"><g transform="translate(137.62779493235428 82.8692711166604) rotate(0 111.69497898994324 0.05133914495064573)"><path d="M-0.06 -0.12 C37.19 -0.11, 186.18 0.01, 223.45 0.06 M0.17 0.14 C37.41 0.17, 186.1 0.24, 223.33 0.21" stroke="#1e1e1e" stroke-width="2" fill="none"></path></g><g transform="translate(137.62779493235428 82.8692711166604) rotate(0 111.69497898994324 0.05133914495064573)"><path d="M195.14 10.47 C202.05 7.87, 209.27 5.55, 223.33 0.21 M195.14 10.47 C204.93 6.84, 214.75 3.26, 223.33 0.21" stroke="#1e1e1e" stroke-width="2" fill="none"></path></g><g transform="translate(137.62779493235428 82.8692711166604) rotate(0 111.69497898994324 0.05133914495064573)"><path d="M195.14 -10.05 C202.05 -7.46, 209.27 -4.58, 223.33 0.21 M195.14 -10.05 C204.94 -6.55, 214.76 -2.98, 223.33 0.21" stroke="#1e1e1e" stroke-width="2" fill="none"></path></g></g><mask></mask><g stroke-linecap="round"><g transform="translate(359.5503649249938 145.61136748926003) rotate(0 -108.07824294154437 -0.023021444501125643)"><path d="M0.03 0 C-35.97 -0.01, -180.11 -0.1, -216.13 -0.12 M-0.13 -0.12 C-36.13 -0.11, -180.19 0.05, -216.19 0.08" stroke="#1e1e1e" stroke-width="2" fill="none"></path></g><g transform="translate(359.5503649249938 145.61136748926003) rotate(0 -108.07824294154437 -0.023021444501125643)"><path d="M-188.01 -10.21 C-193.73 -7.9, -199.42 -5.75, -216.19 0.08 M-188.01 -10.21 C-196.92 -6.86, -206 -3.59, -216.19 0.08" stroke="#1e1e1e" stroke-width="2" fill="none"></path></g><g transform="translate(359.5503649249938 145.61136748926003) rotate(0 -108.07824294154437 -0.023021444501125643)"><path d="M-187.99 10.31 C-193.71 8.45, -199.41 6.43, -216.19 0.08 M-187.99 10.31 C-196.9 7.1, -205.98 3.8, -216.19 0.08" stroke="#1e1e1e" stroke-width="2" fill="none"></path></g></g><mask></mask><g transform="translate(157.05995566622045 49.18617570004585) rotate(0 91.56990814208984 12.5)"><text x="0" y="0" font-family="Virgil, Segoe UI Emoji" font-size="20px" fill="#1e1e1e" text-anchor="start" style="white-space: pre;" direction="ltr" dominant-baseline="text-before-edge">updateProductDto</text></g><g transform="translate(160.712426572796 17.297320719577044) rotate(0 90.0599136352539 12.5)"><text x="0" y="0" font-family="Virgil, Segoe UI Emoji" font-size="20px" fill="#1e1e1e" text-anchor="start" style="white-space: pre;" direction="ltr" dominant-baseline="text-before-edge">createProductDto</text></g><g transform="translate(154.3399620749119 169.2972444256319) rotate(0 98.71989440917969 12.5)"><text x="0" y="0" font-family="Virgil, Segoe UI Emoji" font-size="20px" fill="#1e1e1e" text-anchor="start" style="white-space: pre;" direction="ltr" dominant-baseline="text-before-edge">responseProductDto</text></g><g transform="translate(1070.7070554790455 155.40833858253274) rotate(0 57.479942321777344 12.5)"><text x="0" y="0" font-family="Virgil, Segoe UI Emoji" font-size="20px" fill="#1e1e1e" text-anchor="start" style="white-space: pre;" direction="ltr" dominant-baseline="text-before-edge">ProductDto</text></g><g transform="translate(839.1842156149504 211.79729528826192) rotate(0 46.353981018066406 17.5)"><text x="46.353981018066406" y="0" font-family="Virgil, Segoe UI Emoji" font-size="28px" fill="#f08c00" text-anchor="middle" style="white-space: pre;" direction="ltr" dominant-baseline="text-before-edge">service</text></g><g transform="translate(1347.6740481751717 211.79724442563173) rotate(0 75.64196014404297 17.5)"><text x="75.64196014404297" y="0" font-family="Virgil, Segoe UI Emoji" font-size="28px" fill="#2f9e44" text-anchor="middle" style="white-space: pre;" direction="ltr" dominant-baseline="text-before-edge">persistence</text></g><g transform="translate(395.93260072644136 217.3528169353974) rotate(0 64.04997253417969 17.5)"><text x="64.04997253417969" y="0" font-family="Virgil, Segoe UI Emoji" font-size="28px" fill="#1971c2" text-anchor="middle" style="white-space: pre;" direction="ltr" dominant-baseline="text-before-edge">controller</text></g></svg>